<svg width="574pt" height="152pt" viewBox="0.00 0.00 574.00 152.00" xmlns="http://www.w3.org/2000/svg" xmlns:xlink="http://www.w3.org/1999/xlink">
<g id="graph1" class="graph" transform="scale(1 1) rotate(0) translate(4 148)">
<title>_anonymous_0</title>
<polygon fill="white" stroke="white" points="-4,5 -4,-148 571,-148 571,5 -4,5"></polygon>
<!-- file -->
<g id="node1" class="node"><title>file</title>
<text text-anchor="middle" x="27" y="-67.8" font-family="monospace" font-size="14.00">file</text>
</g>
<!-- Dis -->
<g id="node10" class="node"><title>Dis</title>
<polygon fill="none" stroke="black" points="144,-90 90,-90 90,-54 144,-54 144,-90"></polygon>
<text text-anchor="middle" x="117" y="-67.8" font-family="Times,serif" font-size="14.00">Dis</text>
</g>
<!-- file&#45;&gt;Dis -->
<g id="edge2" class="edge"><title>file-&gt;Dis</title>
<path fill="none" stroke="black" d="M54.4029,-72C62.3932,-72 71.3106,-72 79.8241,-72"></path>
<polygon fill="black" stroke="black" points="79.919,-75.5001 89.919,-72 79.919,-68.5001 79.919,-75.5001"></polygon>
</g>
<!-- ASM -->
<g id="node2" class="node"><title>ASM</title>
<text text-anchor="middle" x="207" y="-94.8" font-family="monospace" font-size="14.00">ASM</text>
</g>
<!-- Json -->
<g id="node3" class="node"><title>Json</title>
<text text-anchor="middle" x="207" y="-40.8" font-family="monospace" font-size="14.00">Json</text>
</g>
<!-- DatPy (text) -->
<g id="node14" class="node"><title>DatPy (text)</title>
<polygon fill="none" stroke="black" points="369.312,-90 284.688,-90 284.688,-54 369.312,-54 369.312,-90"></polygon>
<text text-anchor="middle" x="327" y="-67.8" font-family="Times,serif" font-size="14.00">DatPy (text)</text>
</g>
<!-- Json&#45;&gt;DatPy (text) -->
<g id="edge8" class="edge"><title>Json-&gt;DatPy (text)</title>
<path fill="none" stroke="black" d="M234.188,-50.9922C246.099,-53.7175 260.626,-57.0414 274.577,-60.2338"></path>
<polygon fill="black" stroke="black" points="274.061,-63.706 284.589,-62.5247 275.622,-56.8823 274.061,-63.706"></polygon>
</g>
<!-- DatJS (graphical) -->
<g id="node16" class="node"><title>DatJS (graphical)</title>
<polygon fill="none" stroke="black" points="384.346,-36 269.654,-36 269.654,0 384.346,0 384.346,-36"></polygon>
<text text-anchor="middle" x="327" y="-13.8" font-family="Times,serif" font-size="14.00">DatJS (graphical)</text>
</g>
<!-- Json&#45;&gt;DatJS (graphical) -->
<g id="edge12" class="edge"><title>Json-&gt;DatJS (graphical)</title>
<path fill="none" stroke="black" d="M234.188,-39.0078C241.867,-37.2508 250.633,-35.245 259.631,-33.186"></path>
<polygon fill="black" stroke="black" points="260.479,-36.5826 269.446,-30.9403 258.918,-29.759 260.479,-36.5826"></polygon>
</g>
<!-- PDF -->
<g id="node4" class="node"><title>PDF</title>
<text text-anchor="middle" x="538" y="-13.8" font-family="monospace" font-size="14.00">PDF</text>
</g>
<!-- HTML -->
<g id="node5" class="node"><title>HTML</title>
<text text-anchor="middle" x="538" y="-121.8" font-family="monospace" font-size="14.00">HTML</text>
</g>
<!-- SVG -->
<g id="node6" class="node"><title>SVG</title>
<text text-anchor="middle" x="447" y="-13.8" font-family="monospace" font-size="14.00">SVG</text>
</g>
<!-- SVG&#45;&gt;PDF -->
<g id="edge14" class="edge"><title>SVG-&gt;PDF</title>
<path fill="none" stroke="black" d="M474.222,-18C482.551,-18 491.914,-18 500.816,-18"></path>
<polygon fill="black" stroke="black" points="500.966,-21.5001 510.966,-18 500.966,-14.5001 500.966,-21.5001"></polygon>
</g>
<!-- RTF -->
<g id="node7" class="node"><title>RTF</title>
<text text-anchor="middle" x="538" y="-67.8" font-family="monospace" font-size="14.00">RTF</text>
</g>
<!-- ANSI -->
<g id="node8" class="node"><title>ANSI</title>
<text text-anchor="middle" x="447" y="-67.8" font-family="monospace" font-size="14.00">ANSI</text>
</g>
<!-- ANSI&#45;&gt;HTML -->
<g id="edge10" class="edge"><title>ANSI-&gt;HTML</title>
<path fill="none" stroke="black" d="M474.222,-87.9097C482.682,-93.043 492.209,-98.8236 501.237,-104.301"></path>
<polygon fill="black" stroke="black" points="499.675,-107.447 510.04,-109.643 503.307,-101.463 499.675,-107.447"></polygon>
</g>
<!-- ANSI&#45;&gt;RTF -->
<g id="edge16" class="edge"><title>ANSI-&gt;RTF</title>
<path fill="none" stroke="black" d="M474.222,-72C482.551,-72 491.914,-72 500.816,-72"></path>
<polygon fill="black" stroke="black" points="500.966,-75.5001 510.966,-72 500.966,-68.5001 500.966,-75.5001"></polygon>
</g>
<!-- Dis&#45;&gt;ASM -->
<g id="edge4" class="edge"><title>Dis-&gt;ASM</title>
<path fill="none" stroke="black" d="M144.403,-80.1009C152.481,-82.5794 161.507,-85.3486 170.105,-87.9866"></path>
<polygon fill="black" stroke="black" points="169.332,-91.4106 179.919,-90.9979 171.386,-84.7185 169.332,-91.4106"></polygon>
</g>
<!-- Dis&#45;&gt;Json -->
<g id="edge6" class="edge"><title>Dis-&gt;Json</title>
<path fill="none" stroke="black" d="M144.403,-63.8991C152.481,-61.4206 161.507,-58.6514 170.105,-56.0134"></path>
<polygon fill="black" stroke="black" points="171.386,-59.2815 179.919,-53.0021 169.332,-52.5894 171.386,-59.2815"></polygon>
</g>
<!-- DatPy (text)&#45;&gt;ANSI -->
<g id="edge9" class="edge"><title>DatPy (text)-&gt;ANSI</title>
<path fill="none" stroke="black" d="M369.602,-72C382.666,-72 396.979,-72 409.649,-72"></path>
<polygon fill="black" stroke="black" points="409.842,-75.5001 419.842,-72 409.842,-68.5001 409.842,-75.5001"></polygon>
</g>
<!-- DatJS (graphical)&#45;&gt;SVG -->
<g id="edge13" class="edge"><title>DatJS (graphical)-&gt;SVG</title>
<path fill="none" stroke="black" d="M384.235,-18C392.903,-18 401.65,-18 409.726,-18"></path>
<polygon fill="black" stroke="black" points="409.894,-21.5001 419.894,-18 409.894,-14.5001 409.894,-21.5001"></polygon>
</g>
</g>
</svg>